<?xml version="1.0" standalone="no"?>
<!DOCTYPE svg PUBLIC "-//W3C//DTD SVG 20010904//EN"
 "http://www.w3.org/TR/2001/REC-SVG-20010904/DTD/svg10.dtd">
<svg version="1.0" xmlns="http://www.w3.org/2000/svg"
 width="300.000000pt" height="300.000000pt" viewBox="0 0 300.000000 300.000000"
 preserveAspectRatio="xMidYMid meet">
<metadata>
Created by potrace 1.10, written by Peter Selinger 2001-2011
</metadata>
<g transform="translate(0.000000,300.000000) scale(0.100000,-0.100000)"
fill="#000000" stroke="none">
<path d="M1351 2380 c-34 -5 -57 -30 -27 -30 9 0 18 -13 22 -35 9 -51 36 -48
28 4 -5 31 -3 40 10 43 31 6 0 23 -33 18z"/>
<path d="M1528 2341 c17 -54 27 -61 48 -33 12 16 13 15 14 -5 0 -38 25 -26 48
22 26 53 26 55 9 55 -7 0 -18 -15 -26 -32 -7 -18 -15 -28 -18 -21 -2 7 1 21 7
32 12 23 1 28 -18 9 -9 -9 -12 -8 -12 5 0 9 -5 17 -11 17 -7 0 -9 -10 -5 -25
4 -14 3 -31 -1 -38 -5 -7 -10 1 -13 23 -3 22 -11 36 -22 38 -15 3 -15 0 0 -47z"/>
<path d="M1149 2327 l-27 -12 17 -43 c17 -42 38 -55 34 -19 -2 9 4 17 12 17 8
0 15 7 15 16 0 11 -6 14 -20 9 -11 -4 -20 -2 -20 4 0 6 7 11 15 11 8 0 15 7
15 15 0 17 -5 18 -41 2z"/>
<path d="M1783 2291 c-35 -42 -34 -54 3 -45 18 5 24 2 24 -10 0 -9 7 -16 16
-16 12 0 14 10 12 52 -2 28 -7 53 -13 55 -5 1 -24 -15 -42 -36z"/>
<path d="M957 2222 c-10 -10 -17 -25 -17 -34 0 -20 32 -48 56 -48 45 0 60 58
22 84 -29 21 -41 20 -61 -2z m49 -27 c3 -8 3 -19 0 -24 -10 -16 -36 -1 -36 20
0 22 28 26 36 4z"/>
<path d="M1957 2201 c-20 -30 -23 -40 -12 -44 7 -3 17 2 21 11 6 13 8 11 13
-12 7 -34 31 -48 31 -18 0 11 7 25 15 32 20 17 19 33 -3 53 -27 25 -36 21 -65
-22z"/>
<path d="M808 2099 c-22 -12 -24 -57 -3 -65 8 -4 22 -1 30 6 9 7 18 10 22 7 3
-4 -2 -9 -11 -13 -17 -7 -22 -34 -6 -34 12 0 50 37 50 49 0 20 -28 33 -49 22
-29 -16 -39 -13 -17 4 24 18 10 39 -16 24z"/>
<path d="M2120 2075 l-34 -35 24 -25 c17 -19 27 -22 34 -14 8 8 7 13 -1 16 -7
3 -13 12 -13 20 0 13 3 13 15 3 20 -17 32 -5 15 15 -15 18 0 21 18 3 6 -6 14
-9 18 -6 6 7 -24 58 -35 58 -4 0 -22 -16 -41 -35z"/>
<path d="M1298 1908 c-52 -30 -72 -75 -58 -128 14 -50 53 -78 169 -115 96 -31
127 -56 137 -110 10 -56 -8 -61 -36 -10 -22 40 -28 45 -59 45 -27 0 -32 -3
-23 -12 7 -7 12 -40 12 -79 0 -78 -11 -88 -79 -69 -50 13 -94 50 -111 91 l-13
31 -14 -26 c-19 -36 -5 -58 59 -90 36 -18 68 -26 106 -26 l53 0 -3 -170 c-2
-109 1 -170 7 -170 6 0 9 61 7 169 l-3 168 44 15 44 14 119 -182 c65 -101 122
-183 127 -183 4 -1 7 106 7 237 0 130 3 247 6 260 4 15 2 22 -7 22 -12 0 -13
-40 -11 -227 1 -125 1 -225 -2 -223 -2 3 -50 74 -106 159 -102 154 -102 155
-86 182 9 15 16 47 16 72 0 77 -45 114 -189 157 -116 34 -160 95 -115 159 52
74 213 54 240 -31 5 -16 8 -18 15 -7 5 8 9 26 9 41 0 24 -6 29 -52 43 -76 22
-165 19 -210 -7z m191 -400 l31 -47 -29 -16 c-17 -8 -32 -15 -36 -15 -3 0 -5
30 -5 67 0 36 2 64 3 62 2 -2 18 -25 36 -51z"/>
<path d="M745 1813 c-71 -170 -74 -420 -8 -603 9 -25 20 -49 24 -54 13 -15 23
2 11 17 -21 24 -62 190 -68 272 -8 102 9 222 45 326 28 79 25 111 -4 42z"/>
<path d="M2270 1848 c0 -4 9 -30 20 -57 62 -158 66 -376 11 -540 -33 -98 -35
-135 -3 -60 69 160 77 382 22 562 -17 54 -49 115 -50 95z"/>
<path d="M824 991 c-28 -25 -29 -29 -16 -49 17 -26 54 -29 76 -6 20 19 20 29
0 59 -20 31 -22 31 -60 -4z m46 -25 c0 -21 -20 -30 -33 -17 -9 9 -8 14 3 21
21 14 30 12 30 -4z"/>
<path d="M2092 987 l-21 -23 34 -27 c36 -28 67 -29 44 -1 -9 11 -7 14 9 14 12
0 24 5 27 10 3 6 0 10 -7 10 -8 0 -21 9 -31 20 -22 25 -29 25 -55 -3z"/>
<path d="M1972 870 l-23 -19 26 -36 c31 -40 36 -42 58 -17 24 27 22 50 -2 28
-11 -10 -22 -13 -25 -8 -3 6 1 13 10 16 8 3 12 11 9 17 -5 8 -10 8 -18 0 -19
-19 -31 -12 -14 7 32 35 16 43 -21 12z"/>
<path d="M956 846 l-26 -34 26 -17 c27 -18 46 -13 26 7 -18 18 -15 33 3 18 9
-7 19 -10 22 -6 4 4 1 11 -7 16 -8 5 -11 12 -7 16 3 4 13 1 21 -5 9 -8 16 -8
20 -2 6 9 -30 41 -45 41 -4 0 -18 -15 -33 -34z"/>
<path d="M1116 759 c-15 -78 1 -89 53 -35 22 22 28 35 20 38 -7 2 -23 -7 -36
-21 l-22 -26 6 38 c7 45 -12 51 -21 6z"/>
<path d="M1812 771 c-11 -7 -10 -16 7 -50 12 -23 26 -39 32 -35 6 3 8 12 5 20
-3 7 2 17 10 22 24 13 13 47 -16 50 -14 1 -31 -2 -38 -7z"/>
<path d="M1282 686 c-10 -46 -8 -51 31 -60 20 -5 27 -3 27 9 0 8 -9 15 -20 15
-11 0 -20 5 -20 11 0 6 9 8 20 4 11 -4 20 -2 20 4 0 6 -7 11 -15 11 -8 0 -15
5 -15 11 0 6 9 8 20 4 14 -4 20 -2 20 8 0 9 -12 17 -30 19 -28 4 -30 2 -38
-36z"/>
<path d="M1642 708 c-27 -27 -7 -78 29 -78 21 0 49 26 49 45 0 35 -53 58 -78
33z m43 -33 c0 -10 -5 -20 -11 -22 -13 -4 -27 24 -18 38 9 15 29 4 29 -16z"/>
<path d="M1460 655 c0 -45 0 -45 35 -45 19 0 35 5 35 10 0 6 -11 10 -25 10
-22 0 -25 4 -25 35 0 19 -4 35 -10 35 -5 0 -10 -20 -10 -45z"/>
</g>
</svg>
